<?xml version="1.0" encoding="UTF-8" standalone="no"?>
<!DOCTYPE svg PUBLIC "-//W3C//DTD SVG 1.1//EN"
 "http://www.w3.org/Graphics/SVG/1.1/DTD/svg11.dtd">
<!-- Generated by graphviz version 2.38.0 (20140413.2041)
 -->
<!-- Title: g Pages: 1 -->
<svg width="554pt" height="392pt"
 viewBox="0.00 0.00 554.00 392.00" xmlns="http://www.w3.org/2000/svg" xmlns:xlink="http://www.w3.org/1999/xlink">
<g id="graph0" class="graph" transform="scale(1 1) rotate(0) translate(4 388)">
<title>g</title>
<polygon fill="white" stroke="none" points="-4,4 -4,-388 550,-388 550,4 -4,4"/>
<!-- node00 -->
<g id="node1" class="node"><title>node00</title>
<polygon fill="none" stroke="black" points="228.5,-360.5 228.5,-383.5 293.5,-383.5 293.5,-360.5 228.5,-360.5"/>
<text text-anchor="middle" x="261" y="-368.3" font-family="Times New Roman,serif" font-size="14.00">Matrices</text>
</g>
<!-- node01 -->
<g id="node2" class="node"><title>node01</title>
<polygon fill="none" stroke="black" points="221.5,-300.5 221.5,-323.5 300.5,-323.5 300.5,-300.5 221.5,-300.5"/>
<text text-anchor="middle" x="261" y="-308.3" font-family="Times New Roman,serif" font-size="14.00">matriz_n_3</text>
</g>
<!-- node00&#45;&gt;node01 -->
<g id="edge1" class="edge"><title>node00&#45;&gt;node01</title>
<path fill="none" stroke="black" d="M261,-360.362C261,-352.922 261,-342.743 261,-333.728"/>
<polygon fill="black" stroke="black" points="264.5,-333.571 261,-323.571 257.5,-333.571 264.5,-333.571"/>
</g>
<!-- node02 -->
<g id="node3" class="node"><title>node02</title>
<polygon fill="none" stroke="black" points="0,-240.5 0,-263.5 54,-263.5 54,-240.5 0,-240.5"/>
<text text-anchor="middle" x="27" y="-248.3" font-family="Times New Roman,serif" font-size="14.00">5</text>
</g>
<!-- node01&#45;&gt;node02 -->
<g id="edge2" class="edge"><title>node01&#45;&gt;node02</title>
<path fill="none" stroke="black" d="M221.368,-302.37C183.299,-293.908 123.967,-280.269 63.7435,-264.092"/>
<polygon fill="black" stroke="black" points="64.6406,-260.708 54.0734,-261.474 62.8114,-267.465 64.6406,-260.708"/>
</g>
<!-- node03 -->
<g id="node4" class="node"><title>node03</title>
<polygon fill="none" stroke="black" points="72,-240.5 72,-263.5 126,-263.5 126,-240.5 72,-240.5"/>
<text text-anchor="middle" x="99" y="-248.3" font-family="Times New Roman,serif" font-size="14.00">5</text>
</g>
<!-- node01&#45;&gt;node03 -->
<g id="edge3" class="edge"><title>node01&#45;&gt;node03</title>
<path fill="none" stroke="black" d="M231.663,-300.497C204.829,-290.889 165.011,-276.634 136.002,-266.248"/>
<polygon fill="black" stroke="black" points="136.826,-262.825 126.231,-262.75 134.466,-269.416 136.826,-262.825"/>
</g>
<!-- node11 -->
<g id="node5" class="node"><title>node11</title>
<polygon fill="none" stroke="black" points="144,-240.5 144,-263.5 210,-263.5 210,-240.5 144,-240.5"/>
<text text-anchor="middle" x="165.5" y="-248.3" font-family="Times New Roman,serif" font-size="14.00">(1,1)</text>
<polyline fill="none" stroke="black" points="187,-240.5 187,-263.5 "/>
<text text-anchor="middle" x="198.5" y="-248.3" font-family="Times New Roman,serif" font-size="14.00">3</text>
</g>
<!-- node01&#45;&gt;node11 -->
<g id="edge4" class="edge"><title>node01&#45;&gt;node11</title>
<path fill="none" stroke="black" d="M245.593,-300.362C233.042,-291.696 215.108,-279.313 200.725,-269.382"/>
<polygon fill="black" stroke="black" points="202.527,-266.372 192.309,-263.571 198.55,-272.133 202.527,-266.372"/>
</g>
<!-- node12 -->
<g id="node6" class="node"><title>node12</title>
<polygon fill="none" stroke="black" points="228,-240.5 228,-263.5 294,-263.5 294,-240.5 228,-240.5"/>
<text text-anchor="middle" x="249.5" y="-248.3" font-family="Times New Roman,serif" font-size="14.00">(1,2)</text>
<polyline fill="none" stroke="black" points="271,-240.5 271,-263.5 "/>
<text text-anchor="middle" x="282.5" y="-248.3" font-family="Times New Roman,serif" font-size="14.00">3</text>
</g>
<!-- node01&#45;&gt;node12 -->
<g id="edge5" class="edge"><title>node01&#45;&gt;node12</title>
<path fill="none" stroke="black" d="M261,-300.362C261,-292.922 261,-282.743 261,-273.728"/>
<polygon fill="black" stroke="black" points="264.5,-273.571 261,-263.571 257.5,-273.571 264.5,-273.571"/>
</g>
<!-- node13 -->
<g id="node7" class="node"><title>node13</title>
<polygon fill="none" stroke="black" points="312,-240.5 312,-263.5 378,-263.5 378,-240.5 312,-240.5"/>
<text text-anchor="middle" x="333.5" y="-248.3" font-family="Times New Roman,serif" font-size="14.00">(1,3)</text>
<polyline fill="none" stroke="black" points="355,-240.5 355,-263.5 "/>
<text text-anchor="middle" x="366.5" y="-248.3" font-family="Times New Roman,serif" font-size="14.00">0</text>
</g>
<!-- node01&#45;&gt;node13 -->
<g id="edge6" class="edge"><title>node01&#45;&gt;node13</title>
<path fill="none" stroke="black" d="M276.407,-300.362C288.958,-291.696 306.892,-279.313 321.275,-269.382"/>
<polygon fill="black" stroke="black" points="323.45,-272.133 329.691,-263.571 319.473,-266.372 323.45,-272.133"/>
</g>
<!-- node14 -->
<g id="node8" class="node"><title>node14</title>
<polygon fill="none" stroke="black" points="396,-240.5 396,-263.5 462,-263.5 462,-240.5 396,-240.5"/>
<text text-anchor="middle" x="417.5" y="-248.3" font-family="Times New Roman,serif" font-size="14.00">(1,4)</text>
<polyline fill="none" stroke="black" points="439,-240.5 439,-263.5 "/>
<text text-anchor="middle" x="450.5" y="-248.3" font-family="Times New Roman,serif" font-size="14.00">5</text>
</g>
<!-- node01&#45;&gt;node14 -->
<g id="edge7" class="edge"><title>node01&#45;&gt;node14</title>
<path fill="none" stroke="black" d="M291.424,-300.497C318.694,-291.082 358.893,-277.204 388.804,-266.877"/>
<polygon fill="black" stroke="black" points="390.209,-270.095 398.519,-263.523 387.925,-263.478 390.209,-270.095"/>
</g>
<!-- node15 -->
<g id="node9" class="node"><title>node15</title>
<polygon fill="none" stroke="black" points="480,-240.5 480,-263.5 546,-263.5 546,-240.5 480,-240.5"/>
<text text-anchor="middle" x="501.5" y="-248.3" font-family="Times New Roman,serif" font-size="14.00">(1,5)</text>
<polyline fill="none" stroke="black" points="523,-240.5 523,-263.5 "/>
<text text-anchor="middle" x="534.5" y="-248.3" font-family="Times New Roman,serif" font-size="14.00">6</text>
</g>
<!-- node01&#45;&gt;node15 -->
<g id="edge8" class="edge"><title>node01&#45;&gt;node15</title>
<path fill="none" stroke="black" d="M300.577,-302.587C340.802,-293.937 405.151,-279.83 469.629,-264.28"/>
<polygon fill="black" stroke="black" points="470.662,-267.631 479.557,-261.875 469.014,-260.828 470.662,-267.631"/>
</g>
<!-- node21 -->
<g id="node10" class="node"><title>node21</title>
<polygon fill="none" stroke="black" points="144,-180.5 144,-203.5 210,-203.5 210,-180.5 144,-180.5"/>
<text text-anchor="middle" x="165.5" y="-188.3" font-family="Times New Roman,serif" font-size="14.00">(2,1)</text>
<polyline fill="none" stroke="black" points="187,-180.5 187,-203.5 "/>
<text text-anchor="middle" x="198.5" y="-188.3" font-family="Times New Roman,serif" font-size="14.00">1</text>
</g>
<!-- node11&#45;&gt;node21 -->
<g id="edge9" class="edge"><title>node11&#45;&gt;node21</title>
<path fill="none" stroke="black" d="M177,-240.362C177,-232.922 177,-222.743 177,-213.728"/>
<polygon fill="black" stroke="black" points="180.5,-213.571 177,-203.571 173.5,-213.571 180.5,-213.571"/>
</g>
<!-- node22 -->
<g id="node11" class="node"><title>node22</title>
<polygon fill="none" stroke="black" points="228,-180.5 228,-203.5 294,-203.5 294,-180.5 228,-180.5"/>
<text text-anchor="middle" x="249.5" y="-188.3" font-family="Times New Roman,serif" font-size="14.00">(2,2)</text>
<polyline fill="none" stroke="black" points="271,-180.5 271,-203.5 "/>
<text text-anchor="middle" x="282.5" y="-188.3" font-family="Times New Roman,serif" font-size="14.00">3</text>
</g>
<!-- node12&#45;&gt;node22 -->
<g id="edge10" class="edge"><title>node12&#45;&gt;node22</title>
<path fill="none" stroke="black" d="M261,-240.362C261,-232.922 261,-222.743 261,-213.728"/>
<polygon fill="black" stroke="black" points="264.5,-213.571 261,-203.571 257.5,-213.571 264.5,-213.571"/>
</g>
<!-- node23 -->
<g id="node12" class="node"><title>node23</title>
<polygon fill="none" stroke="black" points="312,-180.5 312,-203.5 378,-203.5 378,-180.5 312,-180.5"/>
<text text-anchor="middle" x="333.5" y="-188.3" font-family="Times New Roman,serif" font-size="14.00">(2,3)</text>
<polyline fill="none" stroke="black" points="355,-180.5 355,-203.5 "/>
<text text-anchor="middle" x="366.5" y="-188.3" font-family="Times New Roman,serif" font-size="14.00">4</text>
</g>
<!-- node13&#45;&gt;node23 -->
<g id="edge11" class="edge"><title>node13&#45;&gt;node23</title>
<path fill="none" stroke="black" d="M345,-240.362C345,-232.922 345,-222.743 345,-213.728"/>
<polygon fill="black" stroke="black" points="348.5,-213.571 345,-203.571 341.5,-213.571 348.5,-213.571"/>
</g>
<!-- node24 -->
<g id="node13" class="node"><title>node24</title>
<polygon fill="none" stroke="black" points="396,-180.5 396,-203.5 462,-203.5 462,-180.5 396,-180.5"/>
<text text-anchor="middle" x="417.5" y="-188.3" font-family="Times New Roman,serif" font-size="14.00">(2,4)</text>
<polyline fill="none" stroke="black" points="439,-180.5 439,-203.5 "/>
<text text-anchor="middle" x="450.5" y="-188.3" font-family="Times New Roman,serif" font-size="14.00">5</text>
</g>
<!-- node14&#45;&gt;node24 -->
<g id="edge12" class="edge"><title>node14&#45;&gt;node24</title>
<path fill="none" stroke="black" d="M429,-240.362C429,-232.922 429,-222.743 429,-213.728"/>
<polygon fill="black" stroke="black" points="432.5,-213.571 429,-203.571 425.5,-213.571 432.5,-213.571"/>
</g>
<!-- node25 -->
<g id="node14" class="node"><title>node25</title>
<polygon fill="none" stroke="black" points="480,-180.5 480,-203.5 546,-203.5 546,-180.5 480,-180.5"/>
<text text-anchor="middle" x="501.5" y="-188.3" font-family="Times New Roman,serif" font-size="14.00">(2,5)</text>
<polyline fill="none" stroke="black" points="523,-180.5 523,-203.5 "/>
<text text-anchor="middle" x="534.5" y="-188.3" font-family="Times New Roman,serif" font-size="14.00">6</text>
</g>
<!-- node15&#45;&gt;node25 -->
<g id="edge13" class="edge"><title>node15&#45;&gt;node25</title>
<path fill="none" stroke="black" d="M513,-240.362C513,-232.922 513,-222.743 513,-213.728"/>
<polygon fill="black" stroke="black" points="516.5,-213.571 513,-203.571 509.5,-213.571 516.5,-213.571"/>
</g>
<!-- node31 -->
<g id="node15" class="node"><title>node31</title>
<polygon fill="none" stroke="black" points="144,-120.5 144,-143.5 210,-143.5 210,-120.5 144,-120.5"/>
<text text-anchor="middle" x="165.5" y="-128.3" font-family="Times New Roman,serif" font-size="14.00">(3,1)</text>
<polyline fill="none" stroke="black" points="187,-120.5 187,-143.5 "/>
<text text-anchor="middle" x="198.5" y="-128.3" font-family="Times New Roman,serif" font-size="14.00">0</text>
</g>
<!-- node21&#45;&gt;node31 -->
<g id="edge14" class="edge"><title>node21&#45;&gt;node31</title>
<path fill="none" stroke="black" d="M177,-180.362C177,-172.922 177,-162.743 177,-153.728"/>
<polygon fill="black" stroke="black" points="180.5,-153.571 177,-143.571 173.5,-153.571 180.5,-153.571"/>
</g>
<!-- node32 -->
<g id="node16" class="node"><title>node32</title>
<polygon fill="none" stroke="black" points="228,-120.5 228,-143.5 294,-143.5 294,-120.5 228,-120.5"/>
<text text-anchor="middle" x="249.5" y="-128.3" font-family="Times New Roman,serif" font-size="14.00">(3,2)</text>
<polyline fill="none" stroke="black" points="271,-120.5 271,-143.5 "/>
<text text-anchor="middle" x="282.5" y="-128.3" font-family="Times New Roman,serif" font-size="14.00">3</text>
</g>
<!-- node22&#45;&gt;node32 -->
<g id="edge15" class="edge"><title>node22&#45;&gt;node32</title>
<path fill="none" stroke="black" d="M261,-180.362C261,-172.922 261,-162.743 261,-153.728"/>
<polygon fill="black" stroke="black" points="264.5,-153.571 261,-143.571 257.5,-153.571 264.5,-153.571"/>
</g>
<!-- node33 -->
<g id="node17" class="node"><title>node33</title>
<polygon fill="none" stroke="black" points="312,-120.5 312,-143.5 378,-143.5 378,-120.5 312,-120.5"/>
<text text-anchor="middle" x="333.5" y="-128.3" font-family="Times New Roman,serif" font-size="14.00">(3,3)</text>
<polyline fill="none" stroke="black" points="355,-120.5 355,-143.5 "/>
<text text-anchor="middle" x="366.5" y="-128.3" font-family="Times New Roman,serif" font-size="14.00">4</text>
</g>
<!-- node23&#45;&gt;node33 -->
<g id="edge16" class="edge"><title>node23&#45;&gt;node33</title>
<path fill="none" stroke="black" d="M345,-180.362C345,-172.922 345,-162.743 345,-153.728"/>
<polygon fill="black" stroke="black" points="348.5,-153.571 345,-143.571 341.5,-153.571 348.5,-153.571"/>
</g>
<!-- node34 -->
<g id="node18" class="node"><title>node34</title>
<polygon fill="none" stroke="black" points="396,-120.5 396,-143.5 462,-143.5 462,-120.5 396,-120.5"/>
<text text-anchor="middle" x="417.5" y="-128.3" font-family="Times New Roman,serif" font-size="14.00">(3,4)</text>
<polyline fill="none" stroke="black" points="439,-120.5 439,-143.5 "/>
<text text-anchor="middle" x="450.5" y="-128.3" font-family="Times New Roman,serif" font-size="14.00">5</text>
</g>
<!-- node24&#45;&gt;node34 -->
<g id="edge17" class="edge"><title>node24&#45;&gt;node34</title>
<path fill="none" stroke="black" d="M429,-180.362C429,-172.922 429,-162.743 429,-153.728"/>
<polygon fill="black" stroke="black" points="432.5,-153.571 429,-143.571 425.5,-153.571 432.5,-153.571"/>
</g>
<!-- node35 -->
<g id="node19" class="node"><title>node35</title>
<polygon fill="none" stroke="black" points="480,-120.5 480,-143.5 546,-143.5 546,-120.5 480,-120.5"/>
<text text-anchor="middle" x="501.5" y="-128.3" font-family="Times New Roman,serif" font-size="14.00">(3,5)</text>
<polyline fill="none" stroke="black" points="523,-120.5 523,-143.5 "/>
<text text-anchor="middle" x="534.5" y="-128.3" font-family="Times New Roman,serif" font-size="14.00">6</text>
</g>
<!-- node25&#45;&gt;node35 -->
<g id="edge18" class="edge"><title>node25&#45;&gt;node35</title>
<path fill="none" stroke="black" d="M513,-180.362C513,-172.922 513,-162.743 513,-153.728"/>
<polygon fill="black" stroke="black" points="516.5,-153.571 513,-143.571 509.5,-153.571 516.5,-153.571"/>
</g>
<!-- node41 -->
<g id="node20" class="node"><title>node41</title>
<polygon fill="none" stroke="black" points="144,-60.5 144,-83.5 210,-83.5 210,-60.5 144,-60.5"/>
<text text-anchor="middle" x="165.5" y="-68.3" font-family="Times New Roman,serif" font-size="14.00">(4,1)</text>
<polyline fill="none" stroke="black" points="187,-60.5 187,-83.5 "/>
<text text-anchor="middle" x="198.5" y="-68.3" font-family="Times New Roman,serif" font-size="14.00">0</text>
</g>
<!-- node31&#45;&gt;node41 -->
<g id="edge19" class="edge"><title>node31&#45;&gt;node41</title>
<path fill="none" stroke="black" d="M177,-120.362C177,-112.922 177,-102.743 177,-93.7276"/>
<polygon fill="black" stroke="black" points="180.5,-93.5706 177,-83.5707 173.5,-93.5707 180.5,-93.5706"/>
</g>
<!-- node42 -->
<g id="node21" class="node"><title>node42</title>
<polygon fill="none" stroke="black" points="228,-60.5 228,-83.5 294,-83.5 294,-60.5 228,-60.5"/>
<text text-anchor="middle" x="249.5" y="-68.3" font-family="Times New Roman,serif" font-size="14.00">(4,2)</text>
<polyline fill="none" stroke="black" points="271,-60.5 271,-83.5 "/>
<text text-anchor="middle" x="282.5" y="-68.3" font-family="Times New Roman,serif" font-size="14.00">3</text>
</g>
<!-- node32&#45;&gt;node42 -->
<g id="edge20" class="edge"><title>node32&#45;&gt;node42</title>
<path fill="none" stroke="black" d="M261,-120.362C261,-112.922 261,-102.743 261,-93.7276"/>
<polygon fill="black" stroke="black" points="264.5,-93.5706 261,-83.5707 257.5,-93.5707 264.5,-93.5706"/>
</g>
<!-- node43 -->
<g id="node22" class="node"><title>node43</title>
<polygon fill="none" stroke="black" points="312,-60.5 312,-83.5 378,-83.5 378,-60.5 312,-60.5"/>
<text text-anchor="middle" x="333.5" y="-68.3" font-family="Times New Roman,serif" font-size="14.00">(4,3)</text>
<polyline fill="none" stroke="black" points="355,-60.5 355,-83.5 "/>
<text text-anchor="middle" x="366.5" y="-68.3" font-family="Times New Roman,serif" font-size="14.00">4</text>
</g>
<!-- node33&#45;&gt;node43 -->
<g id="edge21" class="edge"><title>node33&#45;&gt;node43</title>
<path fill="none" stroke="black" d="M345,-120.362C345,-112.922 345,-102.743 345,-93.7276"/>
<polygon fill="black" stroke="black" points="348.5,-93.5706 345,-83.5707 341.5,-93.5707 348.5,-93.5706"/>
</g>
<!-- node44 -->
<g id="node23" class="node"><title>node44</title>
<polygon fill="none" stroke="black" points="396,-60.5 396,-83.5 462,-83.5 462,-60.5 396,-60.5"/>
<text text-anchor="middle" x="417.5" y="-68.3" font-family="Times New Roman,serif" font-size="14.00">(4,4)</text>
<polyline fill="none" stroke="black" points="439,-60.5 439,-83.5 "/>
<text text-anchor="middle" x="450.5" y="-68.3" font-family="Times New Roman,serif" font-size="14.00">5</text>
</g>
<!-- node34&#45;&gt;node44 -->
<g id="edge22" class="edge"><title>node34&#45;&gt;node44</title>
<path fill="none" stroke="black" d="M429,-120.362C429,-112.922 429,-102.743 429,-93.7276"/>
<polygon fill="black" stroke="black" points="432.5,-93.5706 429,-83.5707 425.5,-93.5707 432.5,-93.5706"/>
</g>
<!-- node45 -->
<g id="node24" class="node"><title>node45</title>
<polygon fill="none" stroke="black" points="480,-60.5 480,-83.5 546,-83.5 546,-60.5 480,-60.5"/>
<text text-anchor="middle" x="501.5" y="-68.3" font-family="Times New Roman,serif" font-size="14.00">(4,5)</text>
<polyline fill="none" stroke="black" points="523,-60.5 523,-83.5 "/>
<text text-anchor="middle" x="534.5" y="-68.3" font-family="Times New Roman,serif" font-size="14.00">6</text>
</g>
<!-- node35&#45;&gt;node45 -->
<g id="edge23" class="edge"><title>node35&#45;&gt;node45</title>
<path fill="none" stroke="black" d="M513,-120.362C513,-112.922 513,-102.743 513,-93.7276"/>
<polygon fill="black" stroke="black" points="516.5,-93.5706 513,-83.5707 509.5,-93.5707 516.5,-93.5706"/>
</g>
<!-- node51 -->
<g id="node25" class="node"><title>node51</title>
<polygon fill="none" stroke="black" points="144,-0.5 144,-23.5 210,-23.5 210,-0.5 144,-0.5"/>
<text text-anchor="middle" x="165.5" y="-8.3" font-family="Times New Roman,serif" font-size="14.00">(5,1)</text>
<polyline fill="none" stroke="black" points="187,-0.5 187,-23.5 "/>
<text text-anchor="middle" x="198.5" y="-8.3" font-family="Times New Roman,serif" font-size="14.00">1</text>
</g>
<!-- node41&#45;&gt;node51 -->
<g id="edge24" class="edge"><title>node41&#45;&gt;node51</title>
<path fill="none" stroke="black" d="M177,-60.3619C177,-52.9219 177,-42.7427 177,-33.7276"/>
<polygon fill="black" stroke="black" points="180.5,-33.5706 177,-23.5707 173.5,-33.5707 180.5,-33.5706"/>
</g>
<!-- node52 -->
<g id="node26" class="node"><title>node52</title>
<polygon fill="none" stroke="black" points="228,-0.5 228,-23.5 294,-23.5 294,-0.5 228,-0.5"/>
<text text-anchor="middle" x="249.5" y="-8.3" font-family="Times New Roman,serif" font-size="14.00">(5,2)</text>
<polyline fill="none" stroke="black" points="271,-0.5 271,-23.5 "/>
<text text-anchor="middle" x="282.5" y="-8.3" font-family="Times New Roman,serif" font-size="14.00">3</text>
</g>
<!-- node42&#45;&gt;node52 -->
<g id="edge25" class="edge"><title>node42&#45;&gt;node52</title>
<path fill="none" stroke="black" d="M261,-60.3619C261,-52.9219 261,-42.7427 261,-33.7276"/>
<polygon fill="black" stroke="black" points="264.5,-33.5706 261,-23.5707 257.5,-33.5707 264.5,-33.5706"/>
</g>
<!-- node53 -->
<g id="node27" class="node"><title>node53</title>
<polygon fill="none" stroke="black" points="312,-0.5 312,-23.5 378,-23.5 378,-0.5 312,-0.5"/>
<text text-anchor="middle" x="333.5" y="-8.3" font-family="Times New Roman,serif" font-size="14.00">(5,3)</text>
<polyline fill="none" stroke="black" points="355,-0.5 355,-23.5 "/>
<text text-anchor="middle" x="366.5" y="-8.3" font-family="Times New Roman,serif" font-size="14.00">0</text>
</g>
<!-- node43&#45;&gt;node53 -->
<g id="edge26" class="edge"><title>node43&#45;&gt;node53</title>
<path fill="none" stroke="black" d="M345,-60.3619C345,-52.9219 345,-42.7427 345,-33.7276"/>
<polygon fill="black" stroke="black" points="348.5,-33.5706 345,-23.5707 341.5,-33.5707 348.5,-33.5706"/>
</g>
<!-- node54 -->
<g id="node28" class="node"><title>node54</title>
<polygon fill="none" stroke="black" points="396,-0.5 396,-23.5 462,-23.5 462,-0.5 396,-0.5"/>
<text text-anchor="middle" x="417.5" y="-8.3" font-family="Times New Roman,serif" font-size="14.00">(5,4)</text>
<polyline fill="none" stroke="black" points="439,-0.5 439,-23.5 "/>
<text text-anchor="middle" x="450.5" y="-8.3" font-family="Times New Roman,serif" font-size="14.00">5</text>
</g>
<!-- node44&#45;&gt;node54 -->
<g id="edge27" class="edge"><title>node44&#45;&gt;node54</title>
<path fill="none" stroke="black" d="M429,-60.3619C429,-52.9219 429,-42.7427 429,-33.7276"/>
<polygon fill="black" stroke="black" points="432.5,-33.5706 429,-23.5707 425.5,-33.5707 432.5,-33.5706"/>
</g>
<!-- node55 -->
<g id="node29" class="node"><title>node55</title>
<polygon fill="none" stroke="black" points="480,-0.5 480,-23.5 546,-23.5 546,-0.5 480,-0.5"/>
<text text-anchor="middle" x="501.5" y="-8.3" font-family="Times New Roman,serif" font-size="14.00">(5,5)</text>
<polyline fill="none" stroke="black" points="523,-0.5 523,-23.5 "/>
<text text-anchor="middle" x="534.5" y="-8.3" font-family="Times New Roman,serif" font-size="14.00">6</text>
</g>
<!-- node45&#45;&gt;node55 -->
<g id="edge28" class="edge"><title>node45&#45;&gt;node55</title>
<path fill="none" stroke="black" d="M513,-60.3619C513,-52.9219 513,-42.7427 513,-33.7276"/>
<polygon fill="black" stroke="black" points="516.5,-33.5706 513,-23.5707 509.5,-33.5707 516.5,-33.5706"/>
</g>
</g>
</svg>
